<svg width="166" height="166" viewBox="0 0 166 166" fill="none" xmlns="http://www.w3.org/2000/svg">
<rect width="165.35" height="165.35" rx="25" fill="#6BA6FF"/>
<path d="M51.3645 91.6502C48.2883 94.7264 46.6025 98.7993 46.6025 103.143C46.6025 107.486 48.3006 111.572 51.3645 114.635C54.4406 117.712 58.5135 119.397 62.857 119.397C67.2006 119.397 71.2857 117.699 74.3496 114.635L81.6586 107.326L58.6734 84.3413L51.3645 91.6502ZM103.143 46.6028C98.799 46.6028 94.7139 48.3008 91.65 51.3647L84.341 58.6737L107.326 81.6588L114.635 74.3499C117.699 71.2737 119.397 67.2008 119.397 62.8573C119.397 58.5137 117.699 54.4286 114.635 51.3647C111.559 48.2885 107.486 46.6028 103.143 46.6028Z" fill="#01FFAF"/>
<path d="M91.2318 87.2697C91.0468 87.0866 90.7969 86.9838 90.5365 86.9838C90.2762 86.9838 90.0263 87.0866 89.8413 87.2697L81.6464 95.4647L70.5353 84.3535L78.7425 76.1463C79.1239 75.7649 79.1239 75.1373 78.7425 74.7559L74.2636 70.277C74.0786 70.0938 73.8287 69.991 73.5684 69.991C73.308 69.991 73.0582 70.0938 72.8732 70.277L64.6659 78.4842L59.3749 73.1932C59.2831 73.1013 59.1736 73.0288 59.0531 72.9802C58.9326 72.9316 58.8035 72.9077 58.6736 72.9102C58.4275 72.9102 58.1691 73.0086 57.9722 73.1932L45.446 85.7317C40.8543 90.3114 38.262 96.5223 38.2355 103.007C38.2109 107.868 39.6136 112.74 42.456 116.924L33.0921 126.288C32.9089 126.473 32.8062 126.723 32.8062 126.983C32.8062 127.243 32.9089 127.493 33.0921 127.678L38.3093 132.896C38.5062 133.092 38.7523 133.179 39.0107 133.179C39.2691 133.179 39.5152 133.08 39.712 132.896L49.0759 123.532C53.2226 126.349 58.046 127.752 62.8695 127.752C69.1695 127.752 75.4695 125.353 80.2806 120.542L92.8191 108.003C93.2005 107.622 93.2005 106.994 92.8191 106.613L87.528 101.322L95.7353 93.1145C96.1167 92.733 96.1167 92.1055 95.7353 91.724L91.2318 87.2697ZM74.3497 114.635C72.8437 116.149 71.0527 117.349 69.0801 118.167C67.1074 118.984 64.9924 119.402 62.8572 119.397C58.5136 119.397 54.4407 117.712 51.3646 114.635C48.3007 111.572 46.6027 107.486 46.6027 103.143C46.6027 98.7992 48.2884 94.7264 51.3646 91.6502L58.6736 84.3412L81.6587 107.326L74.3497 114.635ZM132.92 38.3094L127.703 33.0922C127.506 32.8953 127.26 32.8092 127.001 32.8092C126.743 32.8092 126.497 32.9076 126.3 33.0922L116.936 42.4561C112.866 39.698 108.06 38.2275 103.143 38.2356C96.8427 38.2356 90.5427 40.635 85.7316 45.4461L73.1931 57.9846C73.0099 58.1696 72.9071 58.4194 72.9071 58.6798C72.9071 58.9402 73.0099 59.19 73.1931 59.375L106.625 92.8069C106.822 93.0037 107.068 93.0899 107.326 93.0899C107.572 93.0899 107.831 92.9914 108.028 92.8069L120.566 80.2684C129.044 71.7781 130.041 58.649 123.556 49.076L132.92 39.7121C133.301 39.3184 133.301 38.6908 132.92 38.3094ZM114.635 74.3498L107.326 81.6588L84.3411 58.6737L91.6501 51.3647C94.714 48.3008 98.7991 46.6028 103.143 46.6028C107.486 46.6028 111.559 48.2885 114.635 51.3647C117.699 54.4285 119.397 58.5137 119.397 62.8572C119.397 67.2008 117.699 71.2737 114.635 74.3498Z" fill="black"/>
</svg>
