<svg width="166" height="166" viewBox="0 0 166 166" fill="none" xmlns="http://www.w3.org/2000/svg">
<rect width="165.35" height="165.351" rx="25" fill="#50FFB3"/>
<g clip-path="url(#clip0_1035_38)">
<path d="M96.2254 105.588L97.5849 103.024C98.0165 102.2 98.4181 101.39 98.796 100.564C99.5368 98.9198 100.143 97.2499 100.524 95.6C101.3 92.2692 100.896 89.2141 98.8257 86.9517C96.7552 84.6443 93.3363 83.0957 89.8024 82.0163C82.2793 79.899 74.5859 77.5427 67.1424 74.7791C65.2739 74.0853 63.4143 73.3646 61.5622 72.5967C59.7378 71.8469 57.76 70.9704 55.9504 69.7839C54.1614 68.6014 52.2853 67.0256 51.3168 64.6096C50.8369 63.4215 50.711 62.0777 50.8723 60.8568C51.0351 59.6326 51.4427 58.5187 51.9485 57.526C53.0004 55.4921 54.2912 54.0251 55.4544 52.4512L59.0752 47.8328L66.3928 38.6937L78.8516 23.366L69.3539 23.0996C69.3539 23.0996 47.7199 42.5551 38.0632 54.8327C29.6678 65.504 34.2534 74.9329 49.4404 81.2754C62.2586 86.631 74.2563 90.7766 74.2563 90.7766C76.3233 91.8234 77.7937 93.6581 78.2826 95.7989C78.7715 97.9416 78.2308 100.171 76.7991 101.911L43.7509 142.097H76.7233L90.7471 115.865L96.2254 105.588Z" fill="black"/>
<path d="M127.946 83.7659C123.343 76.237 115.465 70.9267 106.338 69.2005L74.0025 62.5338C72.6542 62.2803 71.5207 61.4436 70.9484 60.2808C70.3761 59.1199 70.4372 57.7739 71.1096 56.6602L92.6048 23.7499L82.135 23.4565L68.8983 40.5792L61.8272 49.8666L58.3508 54.534C57.2321 56.1042 55.9986 57.6566 55.3189 59.1089C54.595 60.6104 54.4134 62.0414 54.9358 63.2292C55.4394 64.4464 56.671 65.5783 58.1564 66.4877C59.6604 67.4186 61.3143 68.1193 63.1479 68.8221C64.9518 69.5194 66.7816 70.1806 68.6245 70.8144C76.0291 73.3589 83.4873 75.4525 91.203 77.4288C95.159 78.5807 99.3465 80.1237 102.682 83.5651C104.308 85.2873 105.521 87.5494 105.982 89.8913C106.457 92.235 106.301 94.5424 105.886 96.6758C105.449 98.8075 104.766 100.811 103.964 102.72C103.558 103.669 103.121 104.609 102.673 105.514L101.369 108.128L96.1444 118.54L84.2888 142.097H117.711L130.353 108.479C133.426 100.304 132.548 91.2946 127.946 83.7659Z" fill="black"/>
</g>
<defs>
<clipPath id="clip0_1035_38">
<rect width="121.686" height="118.998" fill="white" transform="translate(22.1898 23.0996)"/>
</clipPath>
</defs>
</svg>
