<svg width="82" height="82" viewBox="0 0 82 82" fill="none" xmlns="http://www.w3.org/2000/svg">
<path fill-rule="evenodd" clip-rule="evenodd" d="M41 82C63.6437 82 82 63.6437 82 41C82 18.3563 63.6437 0 41 0C18.3563 0 0 18.3563 0 41C0 63.6437 18.3563 82 41 82ZM41 78C61.4345 78 78 61.4345 78 41C78 20.5655 61.4345 4 41 4C20.5655 4 4 20.5655 4 41C4 61.4345 20.5655 78 41 78Z" fill="#01FFAF"/>
<path fill-rule="evenodd" clip-rule="evenodd" d="M20.375 24.125L18.5 26V56L20.375 57.875H61.625L63.5 56V26L61.625 24.125H20.375ZM22.25 30.2387V54.125H59.75V30.2381L40.9998 47.284L22.25 30.2387ZM56.7747 27.875H25.2246L40.9998 42.216L56.7747 27.875Z" fill="#01FFAF"/>
</svg>
