<svg width="82" height="82" viewBox="0 0 82 82" fill="none" xmlns="http://www.w3.org/2000/svg">
<path fill-rule="evenodd" clip-rule="evenodd" d="M41 82C63.6437 82 82 63.6437 82 41C82 18.3563 63.6437 0 41 0C18.3563 0 0 18.3563 0 41C0 63.6437 18.3563 82 41 82ZM41 78C61.4345 78 78 61.4345 78 41C78 20.5655 61.4345 4 41 4C20.5655 4 4 20.5655 4 41C4 61.4345 20.5655 78 41 78Z" fill="#01FFAF"/>
<path d="M24.4883 22.2371C24.6096 20.0911 25.1223 19.1579 26.5923 18.4085C28.1741 17.6019 30.6689 17.9773 33.6044 19.4638C34.8689 20.1044 34.9976 20.1174 37.2135 19.8333C40.1589 19.4555 43.9508 19.4569 46.6694 19.8368C48.7252 20.1241 48.8602 20.1097 50.1277 19.4678C54.2946 17.3577 57.5844 17.4957 58.7756 19.8306C59.3702 20.9961 59.4806 24.0202 59.0196 26.5145C58.7639 27.8973 58.791 28.0699 59.4069 28.9774C63.7396 35.3622 60.6177 45.7117 53.1933 49.574C52.6252 49.8696 52.1464 50.0525 51.7562 50.2015C50.5581 50.659 50.1944 50.7979 50.6348 52.9038C50.8469 53.9167 51.1023 56.435 51.2027 58.5004C51.3842 62.2338 51.3814 62.2598 50.7267 63.0215C49.8354 64.0575 48.5508 64.075 47.6804 63.0629C47.1127 62.4029 47.0573 62.0913 47.0573 59.5448C47.0573 55.7817 46.6448 53.2804 45.6702 51.1371C44.5112 48.5865 45.3704 47.6354 48.0208 47.0654C51.7048 46.2729 54.5821 43.9994 56.1858 40.6138C57.7106 37.3954 57.9404 32.948 55.1837 30.2431C54.3998 29.3115 54.3452 28.4676 54.905 25.9231C55.1142 24.9721 55.2896 23.7452 55.2948 23.1964C55.3027 22.3297 55.2237 22.1988 54.6914 22.1988C54.3546 22.1988 53.0675 22.6888 51.8317 23.2876L49.8592 24.2437C49.6798 24.3306 49.4792 24.364 49.2812 24.3413C44.2656 23.7656 39.4998 23.7567 34.4596 24.3435C34.2609 24.3666 34.0594 24.3332 33.8795 24.2459L31.908 23.2892C30.672 22.6893 29.385 22.1988 29.0483 22.1988C28.2696 22.1988 28.2579 22.7737 28.9676 26.1891C29.4012 28.2751 29.6929 28.7399 28.4396 30.4078C26.5609 32.9079 26.0917 36.0124 27.0991 39.2742C28.3688 43.3846 31.4781 46.1615 35.8494 47.0879C38.4846 47.6465 39.1733 48.3752 38.1671 51.3969C37.375 53.7748 36.8742 54.3877 35.723 54.3877C34.1743 54.3877 33.2041 53.0461 33.738 51.6421C33.9732 51.0234 33.9032 50.9573 32.4523 50.4281C28.0233 48.8134 24.6357 45.194 23.0869 40.4215C21.8898 36.733 22.4165 31.9321 24.337 29.0303C24.9908 28.0423 25.001 27.9585 24.6958 26.067C24.5232 24.9963 24.4298 23.273 24.4883 22.2371Z" fill="#01FFAF"/>
<path d="M22.9417 49.2196C22.3035 48.2623 21.01 48.0035 20.0527 48.6419C19.0953 49.28 18.8366 50.5735 19.4749 51.5308C19.9461 52.2377 20.5097 52.8183 20.9884 53.2969C21.0767 53.3852 21.1624 53.4704 21.2462 53.5535C21.6471 53.9519 22.0012 54.3035 22.3568 54.721C23.1432 55.6442 23.9278 56.8875 24.3738 59.1171C24.5724 60.1102 25.2862 60.6452 25.6818 60.8789C26.1107 61.1323 26.5794 61.2817 26.9651 61.3789C27.7541 61.5779 28.7119 61.6812 29.6208 61.7414C30.6187 61.8077 31.6998 61.8292 32.6667 61.835C32.6674 62.9848 33.5998 63.9169 34.75 63.9169C35.9006 63.9169 36.8333 62.9842 36.8333 61.8335V59.7502C36.8333 58.5996 35.9006 57.6669 34.75 57.6669C34.5536 57.6669 34.3411 57.6675 34.116 57.6683C32.8934 57.6721 31.2998 57.6769 29.8962 57.5839C29.2194 57.5392 28.663 57.4756 28.255 57.3979C27.6267 54.9314 26.6117 53.2904 25.5286 52.0189C25.0498 51.4571 24.554 50.9654 24.1508 50.5654C24.0753 50.4906 24.003 50.4189 23.9347 50.3506C23.4694 49.8854 23.165 49.5546 22.9417 49.2196Z" fill="#01FFAF"/>
</svg>
