<svg width="82" height="82" viewBox="0 0 82 82" fill="none" xmlns="http://www.w3.org/2000/svg">
<path fill-rule="evenodd" clip-rule="evenodd" d="M41 82C63.6437 82 82 63.6437 82 41C82 18.3563 63.6437 0 41 0C18.3563 0 0 18.3563 0 41C0 63.6437 18.3563 82 41 82ZM41 78C61.4345 78 78 61.4345 78 41C78 20.5655 61.4345 4 41 4C20.5655 4 4 20.5655 4 41C4 61.4345 20.5655 78 41 78Z" fill="#01FFAF"/>
<path fill-rule="evenodd" clip-rule="evenodd" d="M30.0628 59.1593V33.412H21.5059V59.1592H30.0628V59.1593ZM25.7852 29.898C28.7683 29.898 30.6265 27.9192 30.6265 25.4485C30.5701 22.9229 28.7683 21 25.8412 21C22.9136 21.0001 21 22.923 21 25.4486C21 27.9193 22.8572 29.898 25.7289 29.898L25.7852 29.898ZM34.7988 59.1593C34.7988 59.1593 34.911 35.8278 34.7988 33.4121H43.357V37.146H43.3002C44.4255 35.389 46.4529 32.8075 51.069 32.8075C56.7006 32.8075 60.9218 36.4874 60.9218 44.396V59.1594H52.3649V45.3853C52.3649 41.9243 51.1268 39.5626 48.0292 39.5626C45.6656 39.5626 44.257 41.1548 43.6384 42.6938C43.4121 43.2416 43.357 44.0111 43.357 44.7806V59.1593H34.7988Z" fill="#01FFAF"/>
</svg>
