<svg width="166" height="166" viewBox="0 0 166 166" fill="none" xmlns="http://www.w3.org/2000/svg">
<rect width="165.35" height="165.35" rx="25" fill="white"/>
<g clip-path="url(#clip0_1036_130)">
<path fill-rule="evenodd" clip-rule="evenodd" d="M116.5 50.5H51.5C49.2534 50.5 47.4375 52.32 47.4375 54.5625C47.4375 56.8091 49.2534 58.625 51.5 58.625H116.5C118.747 58.625 120.562 56.8091 120.562 54.5625C120.562 52.32 118.747 50.5 116.5 50.5ZM140.875 131.75C140.875 136.215 136.463 139.924 132.007 139.924H35.1444C30.6878 139.924 27.0722 136.308 27.0722 131.843V34.9203C27.0722 30.4556 30.7894 26.125 35.25 26.125H132.75C137.211 26.125 140.875 29.7894 140.875 34.25V131.75ZM132.75 18H35.25C26.3369 18 19 25.9991 19 34.9203V131.843C19 140.769 26.2272 148 35.1444 148H132.007C140.924 148 149 140.671 149 131.75V34.25C149 25.3287 141.663 18 132.75 18ZM116.5 99.25H51.5C49.2534 99.25 47.4375 101.07 47.4375 103.312C47.4375 105.559 49.2534 107.375 51.5 107.375H116.5C118.747 107.375 120.562 105.559 120.562 103.312C120.562 101.07 118.747 99.25 116.5 99.25ZM116.5 74.875H51.5C49.2534 74.875 47.4375 76.695 47.4375 78.9375C47.4375 81.1841 49.2534 83 51.5 83H116.5C118.747 83 120.562 81.1841 120.562 78.9375C120.562 76.695 118.747 74.875 116.5 74.875Z" fill="black"/>
</g>
<defs>
<clipPath id="clip0_1036_130">
<rect width="130" height="130" fill="white" transform="translate(19 18)"/>
</clipPath>
</defs>
</svg>
